<svg xmlns="http://www.w3.org/2000/svg" width="24.464" height="19.913" viewBox="0 0 24.464 19.913">
  <g id="Biling" transform="translate(-53.251 -408.5)">
    <path id="Union_8" data-name="Union 8" d="M458.7,19.913a.854.854,0,0,1-.854-.853V6.6l-1.382-1.089a.854.854,0,0,1,1.057-1.341l7.607,6,.026.02a2.709,2.709,0,0,0,1.029.585,1.044,1.044,0,0,0,1.042-.3,1.1,1.1,0,0,0,.345-.51.846.846,0,0,0,0-.426,1.669,1.669,0,0,0-.338-.643l-4.492-3.368a.853.853,0,1,1,1.024-1.365l2.094,1.57a.853.853,0,0,1,.239-.034h6.9l-4.381-3.983H455.854a.854.854,0,0,1,0-1.707H468.94a.861.861,0,0,1,.575.222l6.015,5.468h3.082a.853.853,0,0,1,.853.853V19.06a.853.853,0,0,1-.853.853Zm.853-1.706h18.207V15.942l-18.207-.01Zm18.207-3.972V7.4h-9.672l.228.171a.74.74,0,0,1,.09.08,3.321,3.321,0,0,1,.822,1.481,2.587,2.587,0,0,1-.847,2.6,2.743,2.743,0,0,1-2.605.7,4.35,4.35,0,0,1-1.715-.932L459.552,7.94v6.284Z" transform="translate(-401.75 408.5)" fill="#1c1b1f"/>
  </g>
</svg>
