<svg xmlns="http://www.w3.org/2000/svg" width="25.016" height="20.363" viewBox="0 0 25.016 20.363">
  <g id="Boaking" transform="translate(-53.251 -352.069)">
    <path id="Union_7" data-name="Union 7" d="M16.29,3.2a.864.864,0,0,0,.05.291H10.181a2.059,2.059,0,0,0-.353.03A.864.864,0,0,0,9.89,3.2a3.2,3.2,0,0,0-6.4,0,.863.863,0,0,0,.05.291H.872A.876.876,0,0,0,0,4.363V8.75a.863.863,0,0,0,.28.64l4.073,3.759a.863.863,0,0,0,.593.232h3.2v4.946a2.034,2.034,0,0,0,2.037,2.036h12.8a2.033,2.033,0,0,0,2.036-2.036V5.526A2.033,2.033,0,0,0,22.981,3.49h-.342a.864.864,0,0,0,.05-.291,3.2,3.2,0,0,0-6.4,0Zm1.746,0a1.455,1.455,0,1,1,2.909,0A.864.864,0,0,0,21,3.49h-3.01A.862.862,0,0,0,18.036,3.2Zm-12.8,0a1.454,1.454,0,1,1,2.908,0,.862.862,0,0,0,.051.291H5.186A.862.862,0,0,0,5.236,3.2Zm4.945,2.037h12.8a.29.29,0,0,1,.291.29v12.8a.29.29,0,0,1-.291.29h-12.8a.289.289,0,0,1-.291-.29V5.526A.289.289,0,0,1,10.181,5.236ZM1.745,8.365V5.236h6.4v6.4H5.285Z" transform="translate(78.267 372.431) rotate(180)" fill="#1c1b1f"/>
  </g>
</svg>
