<svg xmlns="http://www.w3.org/2000/svg" width="20.499" height="20.5" viewBox="0 0 20.499 20.5">
  <g id="Dashboard" transform="translate(-53.25 -239.465)">
    <path id="Union_5" data-name="Union 5" d="M466.564,19.711V12.353a.787.787,0,0,1,.229-.556h0v0a.8.8,0,0,1,.255-.168.764.764,0,0,1,.3-.061h7.359a.789.789,0,0,1,0,1.577h-5.456l6.013,6.013a.788.788,0,0,1-1.115,1.115l-6.014-6.012v5.455a.788.788,0,1,1-1.576,0Zm-10.776.789a.789.789,0,0,1-.788-.789V12.353a.789.789,0,0,1,.788-.789h7.359a.789.789,0,0,1,.788.789v7.358a.789.789,0,0,1-.788.789Zm.788-1.577h5.782V13.141h-5.782Zm10.776-9.988a.788.788,0,0,1-.788-.788V.788A.788.788,0,0,1,467.352,0h7.359a.788.788,0,0,1,.788.788V8.147a.788.788,0,0,1-.788.788Zm.788-1.576h5.783V1.577h-5.783ZM455.789,8.935A.788.788,0,0,1,455,8.147V.788A.788.788,0,0,1,455.789,0h7.359a.788.788,0,0,1,.788.788V8.147a.788.788,0,0,1-.788.788Zm.788-1.576h5.782V1.577h-5.782Z" transform="translate(-401.75 239.465)" fill="#1c1b1f"/>
  </g>
</svg>
