<svg xmlns="http://www.w3.org/2000/svg" width="21.5" height="18.5" viewBox="0 0 21.5 18.5">
  <g id="File_Manager" transform="translate(-55.483 -630)">
    <path id="Union_12" data-name="Union 12" d="M455.75,18.5a.749.749,0,0,1-.75-.763V1.75A1.75,1.75,0,0,1,456.75,0h6.5a.748.748,0,0,1,.576.27L466.1,3h6.4a1.749,1.749,0,0,1,1.75,1.751V7h1.5a.749.749,0,0,1,.735.9l-2,10a.749.749,0,0,1-.735.6ZM473.135,17l1.7-8.5h-16L456.711,17ZM456.5,1.75v9.679l.927-3.853A.751.751,0,0,1,458.156,7H472.75V4.75a.25.25,0,0,0-.25-.25h-6.75a.748.748,0,0,1-.576-.27L462.9,1.5H456.75A.25.25,0,0,0,456.5,1.75Z" transform="translate(-399.517 630)" fill="#1c1b1f"/>
  </g>
</svg>
