<svg xmlns="http://www.w3.org/2000/svg" width="22" height="22" viewBox="0 0 22 22">
  <g id="Order" transform="translate(-54.483 -519)">
    <path id="Union_10" data-name="Union 10" d="M458.058,22a.806.806,0,0,1-.794-.676L455.01,7.372a.811.811,0,0,1,.182-.654.827.827,0,0,1,.612-.279h3.53a6.67,6.67,0,0,1,13.331,0h3.53a.827.827,0,0,1,.612.279.811.811,0,0,1,.182.654l-2.254,13.952a.806.806,0,0,1-.794.676Zm.686-1.61h14.511l1.994-12.342h-18.5Zm12.3-13.951a5.052,5.052,0,0,0-10.093,0ZM463.1,17.278a4.851,4.851,0,0,1-.722-.665c-.081-.086-.145-.172-.189-.225-.023-.033-.041-.054-.053-.075l-.017-.021,0-.011h0a.806.806,0,0,1,1.337-.9h0a.086.086,0,0,0,.021.033c.022.032.06.074.113.139a3.22,3.22,0,0,0,.485.44,3.222,3.222,0,0,0,3.863,0,3.218,3.218,0,0,0,.485-.44c.053-.065.091-.107.113-.139a.086.086,0,0,0,.021-.033h0a.806.806,0,0,1,1.337.9l-.642-.432.641.432h0l0,.011-.016.021c-.014.021-.031.042-.054.075-.044.053-.108.139-.189.225a4.852,4.852,0,0,1-.722.665,4.829,4.829,0,0,1-5.8,0ZM462.121,16.273ZM462.194,16.224ZM462.393,16.09Zm6.29-4.017a1.073,1.073,0,1,1,1.073,1.073A1.075,1.075,0,0,1,468.683,12.073Zm-7.512,0a1.073,1.073,0,1,1,1.073,1.073A1.075,1.075,0,0,1,461.17,12.073Z" transform="translate(-400.517 519)" fill="#43abe1"/>
  </g>
</svg>
