<svg xmlns="http://www.w3.org/2000/svg" width="22.534" height="22.535" viewBox="0 0 22.534 22.535">
  <g id="Quotes" transform="translate(-54.733 -294.465)">
    <path id="Union_6" data-name="Union 6" d="M457.359,22.535A2.357,2.357,0,0,1,455,20.177V5.5a2.357,2.357,0,0,1,2.358-2.358h1.834V2.358A2.358,2.358,0,0,1,461.551,0h13.625a2.357,2.357,0,0,1,2.358,2.358V15.984a2.357,2.357,0,0,1-2.358,2.358h-.786v1.835a2.358,2.358,0,0,1-2.358,2.358ZM456.572,5.5V20.177a.787.787,0,0,0,.787.786h14.673a.786.786,0,0,0,.786-.786V5.5a.786.786,0,0,0-.786-.786H457.359A.787.787,0,0,0,456.572,5.5Zm18.6,11.268a.787.787,0,0,0,.787-.787V2.358a.787.787,0,0,0-.787-.786H461.551a.786.786,0,0,0-.786.786v.786h11.267A2.358,2.358,0,0,1,474.39,5.5V16.77Zm-11.267.786V15.722h-2.883a.786.786,0,0,1,0-1.573h2.883V12.577h-2.883a.786.786,0,0,1,0-1.572h2.82L461,8.154a.785.785,0,0,1,1.111-1.11l2.588,2.588,2.589-2.588a.785.785,0,0,1,1.111,1.11l-2.852,2.852h2.82a.786.786,0,1,1,0,1.572h-2.882V14.15h2.882a.786.786,0,1,1,0,1.573h-2.882v1.834a.786.786,0,0,1-1.573,0Z" transform="translate(-400.267 294.465)" fill="#1c1b1f"/>
  </g>
</svg>
