<svg xmlns="http://www.w3.org/2000/svg" width="20.25" height="23.534" viewBox="0 0 20.25 23.534">
  <g id="Reports" transform="translate(-56.233 -572.75)">
    <path id="Union_13" data-name="Union 13" d="M459.1,23.534a.821.821,0,0,1-.821-.821V20.251h-2.463a.822.822,0,0,1-.821-.822V1.368A1.368,1.368,0,0,1,456.368,0h14.777a.822.822,0,0,1,.822.821V3.283h2.463a.822.822,0,0,1,.821.822V22.713a.821.821,0,0,1-.821.821Zm.822-1.642h13.682V4.926H459.926V21.892Zm-3.284-3.283h1.642V4.105a.821.821,0,0,1,.821-.822h11.22V1.642H456.642Zm6.842-2.737a.821.821,0,1,1,0-1.642h6.567a.821.821,0,1,1,0,1.642Zm0-4.378a.821.821,0,1,1,0-1.642h6.567a.821.821,0,1,1,0,1.642Z" transform="translate(-398.768 572.75)" fill="#1c1b1f"/>
  </g>
</svg>
