<svg xmlns="http://www.w3.org/2000/svg" width="23.499" height="19.5" viewBox="0 0 23.499 19.5">
  <g id="User_Details" transform="translate(-53.733 -464)">
    <path id="Union_9" data-name="Union 9" d="M456.913,19.5A1.932,1.932,0,0,1,455,17.55V1.95A1.932,1.932,0,0,1,456.913,0h19.674A1.932,1.932,0,0,1,478.5,1.95v15.6a1.932,1.932,0,0,1-1.912,1.95Zm-.273-17.55v15.6a.277.277,0,0,0,.273.279h19.674a.277.277,0,0,0,.273-.279V1.95a.276.276,0,0,0-.273-.278H456.913A.276.276,0,0,0,456.639,1.95Zm8.744,11.7a2.46,2.46,0,1,0-4.919,0,.82.82,0,1,1-1.64,0,4.2,4.2,0,0,1,1.875-3.51,3.086,3.086,0,0,1-.781-2.06,3.006,3.006,0,1,1,6.012,0,3.085,3.085,0,0,1-.782,2.061,4.2,4.2,0,0,1,1.875,3.51.82.82,0,1,1-1.64,0Zm-3.826-5.571a1.367,1.367,0,1,0,1.366-1.393A1.38,1.38,0,0,0,461.558,8.079Zm8.471,4.736a.836.836,0,0,1,0-1.672h3.28a.836.836,0,0,1,0,1.672Zm-1.093-4.458a.836.836,0,0,1,0-1.671h4.373a.836.836,0,0,1,0,1.671Z" transform="translate(-401.267 464)" fill="#1c1b1f"/>
  </g>
</svg>
