<svg xmlns="http://www.w3.org/2000/svg" width="26" height="27" viewBox="0 0 26 27">
  <g id="Fillter" transform="translate(-365 -125)">
    <path id="Path_185" data-name="Path 185" d="M716.128,391h15.744A2.16,2.16,0,0,1,734,393.192v1.532a2.225,2.225,0,0,1-.637,1.563l-6.505,6.58a.586.586,0,0,1-.422.177l-5.447-.017a.593.593,0,0,1-.437-.2l-5.977-6.575a2.225,2.225,0,0,1-.575-1.5v-1.565A2.161,2.161,0,0,1,716.128,391Zm5.152,13.824,4.855.015a.558.558,0,0,1,.547.565v2.731a.8.8,0,0,1-.453.725l-4.406,2.069a.758.758,0,0,1-.739-.055.8.8,0,0,1-.355-.669v-4.816A.558.558,0,0,1,721.28,404.824Z" transform="translate(-349 -259)" fill="#130f26" fill-rule="evenodd"/>
    <circle id="Ellipse_29" data-name="Ellipse 29" cx="3.5" cy="3.5" r="3.5" transform="translate(384 125)" fill="red"/>
  </g>
</svg>
