<svg xmlns="http://www.w3.org/2000/svg" width="155.614" height="14.225" viewBox="0 0 155.614 14.225">
  <g id="Logo_word" transform="translate(-137 -63.887)">
    <path id="Union_4" data-name="Union 4" d="M15.37,11.983c-1.65-3.056-3.606-5.926-5.56-9.039C8.932,4.328,8.123,5.6,7.314,6.879c-1.23,1.945-2.52,3.861-3.666,5.859-.613,1.07-1.318,1.652-2.54,1.412a5.964,5.964,0,0,0-1.05,0c-.193-.438.136-.652.292-.892Q4.333,7.02,8.363.81A1.721,1.721,0,0,1,11.071.578c2.869,4.431,5.713,8.9,8.605,13.42a1.236,1.236,0,0,1-.248.128,4.717,4.717,0,0,1-.925.1C17.128,14.225,16.178,13.478,15.37,11.983Zm139.358,2.2c-4.13-.045-8.265-.029-12.4,0-.553,0-.769-.145-.765-.756q.032-6.268,0-12.536c0-.71.3-.789.861-.78q3.107-.025,6.205-.029c2.027,0,4.058.049,6.081-.025.954-.033.865.508.9,1.152s-.076,1.016-.886,1c-1.685-.029-3.371-.027-5.058-.025-1.493,0-2.987,0-4.481-.016-.757,0-1,.169-.994,1,.028,2.477,0,2.477,2.4,2.477,2.5,0,5.008.058,7.511-.029.966-.033.878.475.874,1.111s.1,1.156-.874,1.131c-1.642-.043-3.284-.039-4.926-.035-1.338,0-2.677.007-4.015-.015-.8,0-1.057.219-.97,1.016.113,1.045-.433,2.44.229,3.043.4.363,1.185.294,1.957.224.315-.028.63-.057.915-.055,2.468,0,4.932.037,7.4,0,.761,0,.965.236.909.975-.048.617.093,1.173-.842,1.173Zm-98.046-.02c-3.89-.062-7.784-.05-11.674,0-.8,0-1-.232-.981-1.028.056-2.011.02-4.018.02-6.024s.036-4.014-.02-6.016c0-.793.18-1.053.977-1.032,1.667.041,1.667,0,1.667,1.652,0,3.109.028,6.222-.02,9.332,0,.826.212,1.012.981,1,1.582-.024,3.166-.023,4.749-.022,1.435,0,2.871,0,4.3-.015.769,0,1.01.19.986,1s-.051,1.152-.943,1.152Zm40.594,0c-.9-.021-1.226-.2-1.2-1.214.064-3.642,0-7.288.048-10.934,0-.628-.457-1.611.321-1.85a2.8,2.8,0,0,1,2.692.446c2.6,2.085,5.26,4.08,7.9,6.111L111.8,10.4c0-3.229.052-6.247-.028-9.262-.028-1.057.421-1.086,1.2-1.074s1.242-.025,1.222,1.057c-.068,3.931-.02,7.866-.04,11.8,0,.413.292.983-.3,1.173a1.68,1.68,0,0,1-1.566-.334c-2.484-1.9-4.992-3.77-7.492-5.649L98.421,3.32c0,3.341-.036,6.474.02,9.6,0,.9-.174,1.242-1.027,1.242Zm-32.257,0c-1.666-.046-1.67,0-1.67-1.772,0-3.762.06-7.528-.032-11.289C63.287-.165,63.989.087,64.662.091c.1,0,.2-.005.3-.011C65.539.049,66.065.018,66,1.1c-.1,2-.012,4.009-.012,6.012s-.032,4.009,0,6.016c.019.757-.152,1.038-.892,1.038Zm58.313-.136c-2.091-.293-2.969-1.35-2.981-3.535V3.733c0-2.222.905-3.3,3.1-3.535a44.656,44.656,0,0,1,5.306-.124c.972.016,1.944.032,2.915.013h2.744c1.142,0,1.546.619,1.2,1.763-.127.43-.4.393-.659.355a1.44,1.44,0,0,0-.218-.021h-9.186c-2.483,0-2.584.1-2.584,2.581v5.409c0,1.437.34,1.825,1.747,1.838h9.663c1.2,0,1.546.52,1.238,1.7-.144.549-.537.413-.857.413-1.779.02-3.558.012-5.725.012-.645-.034-1.347-.016-2.083,0-.435.011-.882.022-1.337.022A16.631,16.631,0,0,1,123.331,14.027Zm-35.815-.785c-1.887-3.113-3.834-6.194-5.761-9.282-.184-.3-.4-.6-.649-1.012l-5.681,9.01c-1.406,2.234-1.406,2.234-4.05,2.143-.22-.438.172-.669.344-.937Q75.647,7.04,79.6.929a1.7,1.7,0,0,1,3.029,0l7.792,12.157c.188.3.353.615.609,1.057a17.638,17.638,0,0,0-1.891,0,2.2,2.2,0,0,1-.244.014A1.535,1.535,0,0,1,87.516,13.243Zm-50.056.912c-1.967-.062-3.918-.012-5.865-.012-2,0-3.974-.025-5.965,0-.645,0-.9-.157-.893-.884q.048-6.152,0-12.3c0-.714.224-.892.886-.9C27.385.037,27.385,0,27.385,1.875c0,3.072.028,6.148,0,9.22,0,.776.216.954.937.945,1.569-.021,3.138-.021,4.707-.02,1.491,0,2.983,0,4.474-.017.8,0,1.01.211,1,1.016-.008.775-.149,1.137-.95,1.137Z" transform="translate(137 63.887)" fill="#29314e"/>
  </g>
</svg>
