<svg xmlns="http://www.w3.org/2000/svg" width="30.249" height="22.984" viewBox="0 0 30.249 22.984">
  <g id="menu" transform="translate(-36 -57)">
    <path id="Path_1" data-name="Path 1" d="M184.065,36.154c.307.476.586.912.867,1.346,1.107,1.7,2.21,3.413,3.331,5.109a.589.589,0,0,1,.008.765q-2.343,3.592-4.634,7.214c-.176.277-.248.221-.4-.012q-2.316-3.633-4.649-7.243a.531.531,0,0,1,0-.675q2.014-3.075,4.01-6.164c.063-.1.117-.194.18-.289-.082-.105-.183-.062-.268-.062H168.63c-.1,0-.234-.053-.293.043-.069.117.068.206.127.3L178.4,51.555q2.4,3.632,4.792,7.278c.246.374.245.374.5-.011L194.457,42.5q1.986-3.012,3.969-6.026c.055-.084.172-.169.131-.269s-.186-.06-.284-.06H184.356C184.277,36.142,184.2,36.148,184.065,36.154Zm5.178.831h5.576c-.063.11-.1.19-.152.264q-5.514,8.349-11.02,16.7c-.166.253-.243.26-.41,0-.93-1.432-1.875-2.855-2.812-4.281l-8.2-12.419c-.052-.077-.163-.145-.117-.257h5.521c-.083.134-.141.234-.2.329q-.833,1.289-1.668,2.578c-.067.1-.169.187-.07.339.456.7.9,1.406,1.357,2.109.482-.476.489-.528.161-1.037-.207-.322-.4-.654-.626-.964a.355.355,0,0,1,.008-.469q.893-1.353,1.764-2.719a.368.368,0,0,1,.361-.2c.756.008,1.511,0,2.267.006.073,0,.166-.04.221.077-.048.081-.1.171-.153.258q-1.766,2.718-3.536,5.435a.378.378,0,0,0-.018.491q2.9,4.5,5.785,9c.137.214.2.22.339,0q2.88-4.508,5.78-9a.382.382,0,0,0-.015-.491q-1.775-2.713-3.535-5.435a.452.452,0,0,1-.135-.337h2.57c.13,0,.177.076.234.168.6.927,1.2,1.855,1.805,2.776a.334.334,0,0,1-.011.436c-.234.334-.416.7-.669,1.019a.562.562,0,0,0,.028.82c.129.163.18.157.287-.013.377-.6.758-1.2,1.156-1.784a.423.423,0,0,0-.011-.553C190.481,38.9,189.88,37.966,189.244,36.984Zm-19.413.025c1.309-.234,1.538-.134,2.189.9.043.069.087.138.131.206Q177.7,46.5,183.232,54.9c.178.272.244.266.419,0q3.937-5.985,7.891-11.956l3.749-5.671c.086-.13.141-.3.346-.3h1.447c-.284.436-.526.812-.772,1.187l-9.169,13.908c-1.172,1.784-2.358,3.566-3.528,5.355-.144.22-.213.221-.344,0-.176-.3-.38-.586-.571-.876L170.516,38.063C170.285,37.717,170.064,37.369,169.83,37.009Z" transform="translate(-132.318 20.871)" fill="#43abe1"/>
  </g>
</svg>
