<svg xmlns="http://www.w3.org/2000/svg" width="22.746" height="22.746" viewBox="0 0 22.746 22.746">
  <g id="shop" transform="translate(-362.254 -59.627)">
    <path id="Vector" d="M6.824,18.2A2.275,2.275,0,1,0,9.1,20.472,2.272,2.272,0,0,0,6.824,18.2ZM0,0V2.275H2.275l4.094,8.632L4.834,13.693a2.2,2.2,0,0,0-.284,1.092A2.281,2.281,0,0,0,6.824,17.06H20.472V14.785H7.3a.282.282,0,0,1-.284-.284l.034-.136L8.075,12.51h8.473a2.264,2.264,0,0,0,1.99-1.171L22.61,3.958a1.111,1.111,0,0,0,.136-.546,1.141,1.141,0,0,0-1.137-1.137H4.788L3.719,0ZM18.2,18.2a2.275,2.275,0,1,0,2.275,2.275A2.272,2.272,0,0,0,18.2,18.2Z" transform="translate(362.254 59.627)" fill="#fff"/>
  </g>
</svg>
