<svg xmlns="http://www.w3.org/2000/svg" width="10.295" height="16.838" viewBox="0 0 10.295 16.838">
  <g id="arrow-r" transform="translate(-273.636 -561.081)">
    <path id="Union_2" data-name="Union 2" d="M-908.974,16.985a1.5,1.5,0,0,1,.068-2.12l6.049-5.672-6.074-6.006a1.5,1.5,0,0,1-.012-2.121,1.5,1.5,0,0,1,2.121-.012L-900.1,7.7a1.492,1.492,0,0,1,.611.395,1.5,1.5,0,0,1-.068,2.12l-7.294,6.839a1.5,1.5,0,0,1-1.026.406A1.494,1.494,0,0,1-908.974,16.985Z" transform="translate(1183.016 560.46)" fill="#c4c4c4"/>
  </g>
</svg>
