<svg xmlns="http://www.w3.org/2000/svg" width="33" height="16" viewBox="0 0 33 16">
  <g id="BPA" transform="translate(-20 -167)">
    <path id="Union_3" data-name="Union 3" d="M14.938,15.994H13a11.656,11.656,0,0,0-.224-4.106,17.792,17.792,0,0,1-2.356.177A5.908,5.908,0,0,1,6.3,10.813,8.283,8.283,0,0,1,4.45,7.931a9.694,9.694,0,0,0-4.2-5A.5.5,0,0,1,.2,2.1v0A12.179,12.179,0,0,1,7.322,0c3.378,0,6.129,1.179,7.549,3.235a6.415,6.415,0,0,1,1.1,3.4,10.883,10.883,0,0,1-.573,3.784C13.913,5.973,9.773,2.494,5,2.494A15.057,15.057,0,0,1,12.274,7.31,10.544,10.544,0,0,1,13.8,10.029a15.413,15.413,0,0,1,1,3.5C16.319,11.5,19.9,8.5,26.666,8.5a.472.472,0,1,0,0-.938,17.2,17.2,0,0,0-9.451,2.476,5.115,5.115,0,0,1-.05-.6c0-3.1,2.837-5.624,6.334-5.624h2.639A5.812,5.812,0,0,0,31.083,1.25a.541.541,0,0,1,.933.035A9.631,9.631,0,0,1,33,5.521a9.321,9.321,0,0,1-8.825,9.508,6.656,6.656,0,0,1-5.769-2.261,7.84,7.84,0,0,0-2.372,2.654,1.072,1.072,0,0,1-.976.578A1.17,1.17,0,0,1,14.938,15.994Z" transform="translate(20 167)"/>
  </g>
</svg>
