<svg xmlns="http://www.w3.org/2000/svg" xmlns:xlink="http://www.w3.org/1999/xlink" width="15" height="22" viewBox="0 0 15 22">
  <defs>
    <clipPath id="clip-path">
      <rect id="Rectangle_58" data-name="Rectangle 58" width="15" height="22" transform="translate(354 295.874)" fill="#fff"/>
    </clipPath>
  </defs>
  <g id="Leack" transform="translate(-24 -236)">
    <g id="Group_164" data-name="Group 164" transform="translate(-330 -59.874)" clip-path="url(#clip-path)">
      <path id="Path_3174" data-name="Path 3174" d="M368.647,308.459a1.635,1.635,0,0,0-.1-.218l.005.01c-.146-.311-1.32-2.379-1.516-2.661L361.581,296l-5.59,9.826c-.19.283-1.232,2.116-1.376,2.426l-.057.115a6.284,6.284,0,0,0-.558,2.6,6.619,6.619,0,0,0,2.221,4.888,8.108,8.108,0,0,0,10.722,0,6.619,6.619,0,0,0,2.221-4.888v-.1a5.906,5.906,0,0,0-.535-2.458l.017.043Zm-7.062,7.619a6.013,6.013,0,0,1-2.766-.667,5.376,5.376,0,0,1-2.04-1.829,4.708,4.708,0,0,1-.093-5.043l-.015.026a5.344,5.344,0,0,0-.11,1.077h0a5.852,5.852,0,0,0,1.962,4.317,7.045,7.045,0,0,0,4.734,1.789c.113,0,.234,0,.346-.005a6.005,6.005,0,0,1-2,.336h-.015Z" transform="translate(0 -0.01)"/>
    </g>
  </g>
</svg>
